<svg width="72" height="100" viewBox="0 0 72 100" fill="none" xmlns="http://www.w3.org/2000/svg">
    <path fill-rule="evenodd" clip-rule="evenodd" d="M22.4991 80.5057L23.0841 85.461L35.9878 88.6343L48.8922 85.461L49.4771 80.5057H22.4991Z" fill="#861A7B" stroke="#861A7B" stroke-width="1.288" stroke-linecap="round" stroke-linejoin="round"/>
    <path fill-rule="evenodd" clip-rule="evenodd" d="M28.4887 83.7775C35.2081 87.4811 42.7577 91.57 44.7049 91.9055C52.884 93.3479 58.8735 97.34 58.2411 98.9772C58.2411 98.9772 38.9576 96.2338 24.7866 93.3972C19.2846 92.3378 23.2794 80.891 28.4887 83.7775Z" fill="white" stroke="#861A7B" stroke-width="1.288" stroke-linecap="round" stroke-linejoin="round"/>
    <path fill-rule="evenodd" clip-rule="evenodd" d="M28.4887 83.7775C23.2794 80.891 18.6521 78.2937 17.5321 77.9084C13.4423 76.3698 3.80119 72.8093 1.65614 79.881C-0.485856 86.9033 6.81849 88.2982 12.0301 90.2708C14.5623 91.2315 19.2846 92.3378 24.7391 93.4441C25.5663 90.0291 26.7837 86.7602 28.4887 83.7775Z" fill="#861A7B" stroke="#861A7B" stroke-width="1.288" stroke-linecap="round" stroke-linejoin="round"/>
    <path fill-rule="evenodd" clip-rule="evenodd" d="M43.4876 83.7775C36.7682 87.4811 29.2185 91.57 27.2713 91.9055C19.0899 93.3479 13.1003 97.34 13.7352 98.9772C13.7352 98.9772 33.0186 96.2338 47.1872 93.3972C52.6917 92.3378 48.6968 80.891 43.4876 83.7775Z" fill="white" stroke="#861A7B" stroke-width="1.288" stroke-linecap="round" stroke-linejoin="round"/>
    <path fill-rule="evenodd" clip-rule="evenodd" d="M43.4875 83.7775C48.6968 80.891 53.3241 78.2937 54.4441 77.9084C58.5339 76.3698 68.175 72.8093 70.3176 79.881C72.4596 86.9033 65.1553 88.2982 59.9461 90.2708C57.4139 91.2315 52.6916 92.3378 47.2371 93.4441C46.4099 90.0291 45.1925 86.7602 43.4875 83.7775Z" fill="#861A7B" stroke="#861A7B" stroke-width="1.288" stroke-linecap="round" stroke-linejoin="round"/>
    <path fill-rule="evenodd" clip-rule="evenodd" d="M48.8922 48.1356C49.8168 42.6049 45.24 32.553 45.24 32.553C43.0475 32.2644 40.76 32.1682 39.0557 32.1682H32.9206C31.1664 32.1682 28.9264 32.2644 26.7363 32.553C26.7363 32.553 22.1595 42.6518 23.0841 48.1356C23.9594 53.2839 25.4215 60.8341 22.4991 80.5057H49.4771C46.5548 60.8341 48.0145 53.2839 48.8922 48.1356Z" fill="#861A7B" stroke="#861A7B" stroke-width="1.288" stroke-linecap="round" stroke-linejoin="round"/>
    <path fill-rule="evenodd" clip-rule="evenodd" d="M35.6662 45.3952L35.6187 56.8419L38.9577 57.4666C43.9252 58.8146 48.7948 59.8715 53.8117 60.6886C59.5084 61.5087 63.4035 62.1333 66.1779 62.3257C67.8829 62.4219 69.4904 61.7949 69.6852 61.2195C69.88 60.6417 68.9554 58.4292 68.225 56.6021C66.5206 52.1752 57.5113 36.6888 53.0794 34.3801C49.9142 32.746 45.1925 32.553 45.1925 32.553C45.1925 32.553 47.2846 43.5188 48.5519 43.5681C49.8168 43.615 50.7919 45.2497 54.004 48.9532C55.9038 51.3113 57.2684 52.8023 59.3611 55.3996C59.3611 55.3996 55.7859 54.6763 39.6701 53.8593L37.7198 45.0567L35.6662 45.3952Z" fill="white" stroke="#861A7B" stroke-width="1.288" stroke-linecap="round" stroke-linejoin="round"/>
    <path fill-rule="evenodd" clip-rule="evenodd" d="M36.2602 45.3952V56.8419L32.9687 57.4666C28.0011 58.8146 23.1815 59.8715 18.1171 60.6886C12.4204 61.5087 8.52288 62.1333 5.74845 62.3257C4.04349 62.4219 2.43592 61.7949 2.24114 61.2195C2.04636 60.6417 2.97097 58.4292 3.70323 56.6021C5.40575 52.1752 14.4151 36.6888 18.847 34.3801C22.0122 32.746 26.7363 32.553 26.7363 32.553C26.7363 32.553 24.6418 43.5188 23.3769 43.5681C22.1096 43.615 21.1344 45.2497 17.9224 48.9532C16.0226 51.3113 14.6597 52.8023 12.5652 55.3996C12.5652 55.3996 16.705 54.6763 32.7733 53.8593L34.7205 45.0567L36.2602 45.3952Z" fill="white" stroke="#861A7B" stroke-width="1.288" stroke-linecap="round" stroke-linejoin="round"/>
    <path fill-rule="evenodd" clip-rule="evenodd" d="M40.0777 26.6375H31.8487C33.116 30.4842 31.9461 32.2151 31.9461 32.2151C31.9461 32.2151 32.1883 34.7162 35.9878 34.7162C39.738 34.7162 39.9803 32.2151 39.9803 32.2151C39.9803 32.2151 38.8128 30.4373 40.0777 26.6375Z" fill="white" stroke="#861A7B" stroke-width="1.288" stroke-linecap="round" stroke-linejoin="round"/>
    <path fill-rule="evenodd" clip-rule="evenodd" d="M44.4122 15.4301C44.4122 5.76113 40.6127 3.54861 35.9878 3.54861C31.3137 3.54861 27.5641 5.76113 27.5641 15.4301C27.5641 18.6989 28.149 21.2499 29.0237 23.2226C30.971 27.5508 34.3334 29.0893 35.9878 29.0893C37.6429 29.0893 41.0029 27.5508 42.9525 23.2226C43.8272 21.2499 44.4122 18.6989 44.4122 15.4301Z" fill="white" stroke="#861A7B" stroke-width="1.288" stroke-linecap="round" stroke-linejoin="round"/>
    <path fill-rule="evenodd" clip-rule="evenodd" d="M38.3727 23.9434C38.3727 23.9434 37.3032 24.4719 35.9878 24.4719C34.673 24.4719 33.6011 23.9434 33.6011 23.9434C33.6011 23.7979 34.3809 22.9334 34.8684 22.8841C35.1606 22.8372 35.9878 23.1263 35.9878 23.1263C35.9878 23.1263 36.7682 22.8372 37.1078 22.8841C37.5954 22.9334 38.3727 23.9434 38.3727 23.9434Z" fill="#861A7B"/>
    <path fill-rule="evenodd" clip-rule="evenodd" d="M38.3727 23.9434C38.3727 23.9434 37.3032 24.9042 35.9878 24.9042C34.673 24.9042 33.6011 23.9434 33.6011 23.9434C33.6011 23.9434 33.8458 23.6548 35.258 23.558C35.5009 23.558 35.793 23.751 35.9878 23.751C36.1832 23.751 36.4255 23.558 36.6209 23.558C38.083 23.6548 38.3727 23.9434 38.3727 23.9434Z" fill="#861A7B"/>
    <path fill-rule="evenodd" clip-rule="evenodd" d="M40.4203 4.03017C40.4203 5.67633 38.4348 7.01286 35.9878 7.01286C33.5415 7.01286 31.5559 5.67633 31.5559 4.03017C31.5559 2.38401 33.5415 1.04749 35.9878 1.04749C38.4348 1.04749 40.4203 2.38401 40.4203 4.03017Z" fill="#861A7B" stroke="#861A7B" stroke-width="1.288" stroke-linecap="round" stroke-linejoin="round"/>
    <path fill-rule="evenodd" clip-rule="evenodd" d="M44.7524 15.8623C44.7524 6.1958 42.0748 3.5979 35.9878 3.5979C29.9009 3.5979 27.2214 6.2427 27.2214 15.8623C27.2214 15.8623 40.2249 13.072 40.2249 9.56087C40.2249 13.072 44.7524 15.8623 44.7524 15.8623Z" fill="#861A7B" stroke="#861A7B" stroke-width="1.288" stroke-linecap="round" stroke-linejoin="round"/>
    <path fill-rule="evenodd" clip-rule="evenodd" d="M26.1276 18.845C26.5652 21.4892 27.1502 21.5854 27.9774 21.4423L27.1003 15.7186C26.273 15.8623 25.64 16.1978 26.1276 18.845Z" fill="#861A7B"/>
    <path fill-rule="evenodd" clip-rule="evenodd" d="M44.8736 15.7186L43.9989 21.4423C44.8261 21.5854 45.3612 21.4423 45.8487 18.845C46.3357 16.1978 45.7032 15.8623 44.8736 15.7186Z" fill="#861A7B"/>
</svg>
