<svg width="50" height="50" viewBox="0 0 50 50" fill="none" xmlns="http://www.w3.org/2000/svg">
    <path fill-rule="evenodd" clip-rule="evenodd" d="M24.2736 0.0108618C10.4769 0.413683 -0.383696 11.9244 0.0103946 25.7272C0.404485 39.5265 11.9148 50.392 25.7257 49.9892C39.533 49.5863 50.3971 38.0649 49.9889 24.2621C49.5806 10.4592 38.0667 -0.391959 24.2736 0.0108618Z" fill="#7E3787"/>
    <path fill-rule="evenodd" clip-rule="evenodd" d="M24.2189 21.3259C21.5736 25.307 18.9282 29.295 16.2828 33.2795C15.9927 33.7203 16.1838 34.0628 16.7163 34.0493C22.3279 33.8865 27.9429 33.7203 33.5511 33.5609C34.0836 33.544 34.2577 33.1913 33.9402 32.7674C31.0662 28.9423 28.1955 25.1171 25.3214 21.292C25.1644 21.0851 24.9665 20.9834 24.7753 20.9834C24.5705 20.9834 24.3657 21.0953 24.2189 21.3259Z" fill="white"/>
    <path fill-rule="evenodd" clip-rule="evenodd" d="M35.053 12.2174C27.0418 14.5945 19.0272 16.9683 11.0126 19.342C10.1626 19.593 9.68135 20.4747 9.93736 21.3156C10.1387 21.9837 10.3401 22.6483 10.5415 23.3164C10.7941 24.1574 11.6884 24.6287 12.5349 24.3812C20.5495 22.0074 28.5642 19.6303 36.5788 17.2531C37.4253 17.0022 37.9066 16.1171 37.654 15.2829C37.4526 14.6149 37.2512 13.9468 37.0464 13.2788C36.8416 12.5938 36.2067 12.1495 35.5138 12.1495C35.3602 12.1495 35.2066 12.1733 35.053 12.2174Z" fill="white"/>
    <mask id="mask0" mask-type="alpha" maskUnits="userSpaceOnUse" x="9" y="12" width="29" height="13">
        <path fill-rule="evenodd" clip-rule="evenodd" d="M35.053 12.2174C27.0418 14.5945 19.0272 16.9683 11.0126 19.342C10.1626 19.593 9.68135 20.4747 9.93736 21.3156C10.1387 21.9837 10.3401 22.6483 10.5415 23.3164C10.7941 24.1574 11.6884 24.6287 12.5349 24.3812C20.5495 22.0074 28.5642 19.6303 36.5788 17.2531C37.4253 17.0022 37.9066 16.1171 37.654 15.2829C37.4526 14.6149 37.2512 13.9468 37.0464 13.2788C36.8416 12.5938 36.2067 12.1495 35.5138 12.1495C35.3602 12.1495 35.2066 12.1733 35.053 12.2174Z" fill="white"/>
    </mask>
    <g mask="url(#mask0)">
    </g>
</svg>
