<svg width="50" height="50" viewBox="0 0 50 50" fill="none" xmlns="http://www.w3.org/2000/svg">
    <path fill-rule="evenodd" clip-rule="evenodd" d="M25.8286 49.9854C39.6376 49.522 50.4521 37.9507 49.9854 24.1515C49.5223 10.3522 37.9618 -0.44905 24.1705 0.0143714C10.3793 0.481357 -0.438826 12.0384 0.0136946 25.8376C0.46268 39.6369 12.0232 50.4524 25.8286 49.9854Z" fill="#7E3787"/>
    <path fill-rule="evenodd" clip-rule="evenodd" d="M28.6406 25.1778C28.6733 26.7594 30.019 28.0543 31.6223 28.0543C33.2111 28.0543 34.5714 26.6324 34.5242 25.0327C34.4734 23.4584 33.0914 22.1526 31.5099 22.1925C29.9356 22.2288 28.608 23.6108 28.6406 25.1778ZM31.9343 40.0537C30.7082 38.6281 29.4749 37.2969 28.3577 35.8749C26.5259 33.5498 24.9334 31.065 24.0846 28.1958C23.1633 25.0908 23.3918 22.1562 25.7097 19.6896C27.9333 17.3209 30.7409 16.639 33.8241 17.4805C36.8131 18.2931 38.6631 20.3425 39.3849 23.3605C39.7839 25.04 39.5917 26.7194 39.0983 28.3409C37.7417 32.8062 35.0647 36.4771 31.9343 40.0537Z" fill="white"/>
    <path fill-rule="evenodd" clip-rule="evenodd" d="M14.9004 17.8495C14.9258 18.9921 15.8725 19.8953 17.0369 19.8881C18.1904 19.8808 19.1517 18.8869 19.1154 17.7407C19.0827 16.6234 18.078 15.684 16.9535 15.7093C15.8362 15.7347 14.8714 16.7359 14.9004 17.8495ZM17.338 28.4523C16.6742 27.7268 16.0321 27.0666 15.4409 26.3666C13.9101 24.5565 12.5498 22.6304 11.7663 20.3705C11.2766 18.9558 11.1025 17.5194 11.5559 16.0539C12.2814 13.7288 14.4869 12.1473 16.9281 12.1146C19.7466 12.0747 22.1152 14.0226 22.6086 16.6706C22.8516 17.9765 22.6847 19.2533 22.2676 20.4938C21.2628 23.4973 19.4636 26.0147 17.338 28.4523Z" fill="white"/>
</svg>
