<svg width="50" height="50" viewBox="0 0 50 50" fill="none" xmlns="http://www.w3.org/2000/svg">
    <path fill-rule="evenodd" clip-rule="evenodd" d="M25.7236 49.9891C39.5308 49.5827 50.3961 38.0606 49.9889 24.2604C49.5818 10.4601 38.0687 -0.395364 24.2756 0.0110491C10.4826 0.413897 -0.382642 11.9254 0.0103325 25.7256C0.403307 39.5294 11.9164 50.392 25.7236 49.9891Z" fill="#7E3787"/>
    <path fill-rule="evenodd" clip-rule="evenodd" d="M14.0022 26.4826C14.1372 31.091 17.0994 34.9542 21.1805 36.4657C20.5163 34.1422 20.8431 31.7308 21.9477 29.7131C22.0187 30.6059 22.2247 31.4988 22.5799 32.374C23.4181 34.4339 24.9383 36.0228 26.7888 37C32.1485 36.1282 36.1586 31.4144 35.9952 25.8464C35.917 23.2698 33.825 20.0253 31.4559 17.1534C30.4721 19.628 28.4156 21.5895 25.8263 22.4613C27.1298 20.8443 27.8864 18.7879 27.8189 16.5663C27.762 14.5978 27.0694 12.7981 25.9364 11.3463C25.2012 10.6609 24.6862 10 24.5547 10C24.6684 14.9072 13.8211 20.419 14.0022 26.4826Z" fill="white"/>
    <mask id="mask0" mask-type="alpha" maskUnits="userSpaceOnUse" x="14" y="10" width="22" height="27">
        <path fill-rule="evenodd" clip-rule="evenodd" d="M14.0022 26.4826C14.1372 31.091 17.0994 34.9542 21.1805 36.4657C20.5163 34.1422 20.8431 31.7308 21.9477 29.7131C22.0187 30.6059 22.2247 31.4988 22.5799 32.374C23.4181 34.4339 24.9383 36.0228 26.7888 37C32.1485 36.1282 36.1586 31.4144 35.9952 25.8464C35.917 23.2698 33.825 20.0253 31.4559 17.1534C30.4721 19.628 28.4156 21.5895 25.8263 22.4613C27.1298 20.8443 27.8864 18.7879 27.8189 16.5663C27.762 14.5978 27.0694 12.7981 25.9364 11.3463C25.2012 10.6609 24.6862 10 24.5547 10C24.6684 14.9072 13.8211 20.419 14.0022 26.4826Z" fill="white"/>
    </mask>
    <g mask="url(#mask0)">
    </g>
</svg>
