<svg width="50" height="50" viewBox="0 0 50 50" fill="none" xmlns="http://www.w3.org/2000/svg">
    <path fill-rule="evenodd" clip-rule="evenodd" d="M25.7216 49.989C39.5288 49.5825 50.3916 38.0604 49.9892 24.2567C49.5797 10.4565 38.0707 -0.395359 24.2777 0.0110526C10.4846 0.417464 -0.378242 11.9289 0.0100959 25.729C0.401964 39.5328 11.9109 50.3954 25.7216 49.989Z" fill="#7E3787"/>
    <path fill-rule="evenodd" clip-rule="evenodd" d="M31.4204 15.0036C28.8601 15.0802 26.643 16.483 25.3807 18.5455C24.0076 16.5596 21.7119 15.2915 19.1515 15.368C15.0822 15.4846 11.8818 18.9463 12.0034 23.0894C12.2 30.1329 25.9386 38 25.9386 38C25.9386 38 39.2015 29.3313 38.9977 22.2877C38.8832 18.2175 35.6077 15 31.6385 15C31.5706 15 31.4955 15 31.4204 15.0036Z" fill="white"/>
    <mask id="mask0" mask-type="alpha" maskUnits="userSpaceOnUse" x="12" y="15" width="27" height="23">
        <path fill-rule="evenodd" clip-rule="evenodd" d="M31.4204 15.0036C28.8601 15.0802 26.643 16.483 25.3807 18.5455C24.0076 16.5596 21.7119 15.2915 19.1515 15.368C15.0822 15.4846 11.8818 18.9463 12.0034 23.0894C12.2 30.1329 25.9386 38 25.9386 38C25.9386 38 39.2015 29.3313 38.9977 22.2877C38.8832 18.2175 35.6077 15 31.6385 15C31.5706 15 31.4955 15 31.4204 15.0036Z" fill="white"/>
    </mask>
    <g mask="url(#mask0)">
    </g>
</svg>
