<svg width="50" height="50" viewBox="0 0 50 50" fill="none" xmlns="http://www.w3.org/2000/svg">
    <path fill-rule="evenodd" clip-rule="evenodd" d="M25.7226 49.989C39.5315 49.5826 50.3955 38.0604 49.989 24.2603C49.5824 10.4565 38.0679 -0.395359 24.2767 0.0110526C10.4819 0.413899 -0.382114 11.9289 0.0103049 25.7291C0.399189 39.5292 11.9137 50.3954 25.7226 49.989Z" fill="#7E3787"/>
    <path fill-rule="evenodd" clip-rule="evenodd" d="M15.0001 27.0431C15.0036 27.134 15.0071 27.2249 15.0105 27.3193C15.2547 32.8022 19.7714 37.0963 25.1914 36.9984C25.2681 36.9949 25.3414 36.9914 25.4146 36.9914C30.8277 36.7641 35.0723 32.2148 34.9991 26.7354C34.9956 26.6444 34.9921 26.55 34.9886 26.4556C34.6921 20.8853 24.6892 12.1084 24.5671 12C24.4485 12.1189 14.9687 21.4692 15.0001 27.0431Z" fill="white"/>
    <mask id="mask0" mask-type="alpha" maskUnits="userSpaceOnUse" x="15" y="12" width="20" height="25">
        <path fill-rule="evenodd" clip-rule="evenodd" d="M15.0001 27.0431C15.0036 27.134 15.0071 27.2249 15.0105 27.3193C15.2547 32.8022 19.7714 37.0963 25.1914 36.9984C25.2681 36.9949 25.3414 36.9914 25.4146 36.9914C30.8277 36.7641 35.0723 32.2148 34.9991 26.7354C34.9956 26.6444 34.9921 26.55 34.9886 26.4556C34.6921 20.8853 24.6892 12.1084 24.5671 12C24.4485 12.1189 14.9687 21.4692 15.0001 27.0431Z" fill="white"/>
    </mask>
    <g mask="url(#mask0)">
    </g>
</svg>
