<svg width="50" height="50" viewBox="0 0 50 50" fill="none" xmlns="http://www.w3.org/2000/svg">
    <path fill-rule="evenodd" clip-rule="evenodd" d="M25.8297 49.9856C39.637 49.5222 50.4527 37.9509 49.9854 24.1516C49.5181 10.3558 37.9624 -0.449056 24.1693 0.0143669C10.3796 0.481355 -0.436097 12.0349 0.0135256 25.8377C0.466689 39.6335 12.0224 50.4491 25.8297 49.9856Z" fill="#7E3787"/>
    <path fill-rule="evenodd" clip-rule="evenodd" d="M28.1033 10.252C22.8048 15.9201 17.5099 21.5812 12.2113 27.2493C11.8274 27.6539 11.9831 27.9698 12.5445 27.9521C16.8254 27.8137 21.1098 27.6717 25.3907 27.5297C24.4128 31.5297 23.4386 35.5262 22.4643 39.5262C22.334 40.0621 22.5259 40.1579 22.8953 39.7391C27.8643 34.1171 32.8369 28.4916 37.8023 22.866C38.1681 22.4472 38.0123 22.1242 37.451 22.1455C33.2715 22.2839 29.0921 22.4188 24.9126 22.5572C26.1114 18.5288 27.3066 14.5004 28.5053 10.472C28.5959 10.1633 28.5742 10 28.4619 10C28.3822 10 28.2591 10.0852 28.1033 10.252Z" fill="white"/>
    <mask id="mask0" mask-type="alpha" maskUnits="userSpaceOnUse" x="12" y="10" width="26" height="30">
        <path fill-rule="evenodd" clip-rule="evenodd" d="M28.1033 10.252C22.8048 15.9201 17.5099 21.5812 12.2113 27.2493C11.8274 27.6539 11.9831 27.9698 12.5445 27.9521C16.8254 27.8137 21.1098 27.6717 25.3907 27.5297C24.4128 31.5297 23.4386 35.5262 22.4643 39.5262C22.334 40.0621 22.5259 40.1579 22.8953 39.7391C27.8643 34.1171 32.8369 28.4916 37.8023 22.866C38.1681 22.4472 38.0123 22.1242 37.451 22.1455C33.2715 22.2839 29.0921 22.4188 24.9126 22.5572C26.1114 18.5288 27.3066 14.5004 28.5053 10.472C28.5959 10.1633 28.5742 10 28.4619 10C28.3822 10 28.2591 10.0852 28.1033 10.252Z" fill="white"/>
    </mask>
    <g mask="url(#mask0)">
    </g>
</svg>
