<?xml version="1.0" encoding="UTF-8"?>
<svg width="406px" height="270px" viewBox="0 0 406 270" version="1.1" xmlns="http://www.w3.org/2000/svg" xmlns:xlink="http://www.w3.org/1999/xlink">
    <!-- Generator: Sketch 61 (89581) - https://sketch.com -->
    <title>Logo</title>
    <desc>Created with Sketch.</desc>
    <g id="Logo" stroke="none" stroke-width="1" fill="none" fill-rule="evenodd">
        <path d="M221.348459,249.831031 C221.329007,238.652353 212.322797,229.681809 201.254689,229.701525 C190.206034,229.701525 181.180371,238.7115 181.199823,249.890177 C181.219275,261.009708 190.264389,270.019683 201.313045,269.999968 C212.361701,269.980252 221.367911,260.970278 221.348459,249.831031" id="Fill-20" fill="#F9F6FA" transform="translate(201.274141, 249.850746) scale(-1, 1) rotate(-360.000000) translate(-201.274141, -249.850746) "></path>
        <path d="M89.8615019,210.753795 C93.3455961,216.032719 97.2724206,220.979265 101.468733,225.671642 C118.09999,209.795768 148.821617,191.182675 201.583509,191.104469 C243.642879,191.065366 279.273036,203.324199 302.064018,225.612987 C306.279579,220.901059 310.148656,215.934961 313.690498,210.675589 C287.338426,185.805994 247.6467,172.217654 201.564259,172.276308 C143.970834,172.354515 109.264635,192.825007 89.8615019,210.753795" id="Fill-18" fill="#F9F6FA" transform="translate(201.776000, 198.973881) scale(-1, 1) rotate(-360.000000) translate(-201.776000, -198.973881) "></path>
        <path d="M313.690498,58.2332821 C310.185346,52.9367464 306.275753,48.0115545 302.058015,43.3208955 C285.456691,59.2105027 254.757722,77.8363277 201.968591,77.8949609 C159.926025,77.9535941 124.277473,65.6797032 101.493985,43.3599843 C97.3147648,48.0310989 93.4436902,53.0344684 89.8615019,58.2332821 C116.227179,83.113319 155.900878,96.7748632 201.98785,96.71623 C259.630268,96.6380523 294.335125,76.1359638 313.690498,58.2332821" id="Fill-14" fill="#F9F6FA" transform="translate(201.776000, 70.018657) scale(-1, 1) rotate(-360.000000) translate(-201.776000, -70.018657) "></path>
        <path d="M181.199823,20.2082686 C181.219294,31.3454448 190.214769,40.3181522 201.313083,40.2984752 C212.372455,40.2984752 221.36793,31.2864138 221.348459,20.1492376 C221.348459,9.01206134 212.314043,0.0393539796 201.254671,1.65448209e-14 L201.215729,1.65448209e-14 C190.156357,0.0787079593 181.180353,9.07109231 181.199823,20.2082686" id="Fill-16" fill="#F9F6FA" transform="translate(201.274141, 20.149254) scale(-1, 1) rotate(-360.000000) translate(-201.274141, -20.149254) "></path>
        <path d="M14.736,149.48 C19.376,149.48 22.984,148.176 25.56,145.568 C28.136,142.96 29.424,139.224 29.424,134.36 L29.424,134.36 L29.424,115.4 L23.28,115.4 L23.28,134.12 C23.28,140.712 20.448,144.008 14.784,144.008 C9.088,144.008 6.24,140.712 6.24,134.12 L6.24,134.12 L6.24,115.4 L0,115.4 L0,134.36 C0,139.224 1.296,142.96 3.888,145.568 C6.48,148.176 10.096,149.48 14.736,149.48 Z M43.584,149 L43.584,136.04 C43.584,133.544 44.224,131.632 45.504,130.304 C46.784,128.976 48.528,128.312 50.736,128.312 C52.688,128.312 54.192,128.88 55.248,130.016 C56.304,131.152 56.832,132.84 56.832,135.08 L56.832,135.08 L56.832,149 L62.832,149 L62.832,134.312 C62.832,130.6 61.856,127.8 59.904,125.912 C57.952,124.024 55.36,123.08 52.128,123.08 C50.24,123.08 48.544,123.384 47.04,123.992 C45.536,124.6 44.288,125.496 43.296,126.68 L43.296,126.68 L43.296,123.368 L37.584,123.368 L37.584,149 L43.584,149 Z M73.488,119.144 C74.608,119.144 75.528,118.784 76.248,118.064 C76.968,117.344 77.328,116.456 77.328,115.4 C77.328,114.408 76.96,113.584 76.224,112.928 C75.488,112.272 74.576,111.944 73.488,111.944 C72.4,111.944 71.488,112.288 70.752,112.976 C70.016,113.664 69.648,114.52 69.648,115.544 C69.648,116.568 70.016,117.424 70.752,118.112 C71.488,118.8 72.4,119.144 73.488,119.144 Z M76.464,149 L76.464,123.368 L70.464,123.368 L70.464,149 L76.464,149 Z M109.392,158.312 L109.392,123.368 L103.68,123.368 L103.68,126.728 C102.688,125.512 101.464,124.6 100.008,123.992 C98.552,123.384 96.944,123.08 95.184,123.08 C92.688,123.08 90.464,123.624 88.512,124.712 C86.56,125.8 85.024,127.336 83.904,129.32 C82.784,131.304 82.224,133.592 82.224,136.184 C82.224,138.808 82.776,141.112 83.88,143.096 C84.984,145.08 86.52,146.616 88.488,147.704 C90.456,148.792 92.688,149.336 95.184,149.336 C98.64,149.336 101.376,148.184 103.392,145.88 L103.392,145.88 L103.392,158.312 L109.392,158.312 Z M95.856,144.2 C93.648,144.2 91.832,143.464 90.408,141.992 C88.984,140.52 88.272,138.584 88.272,136.184 C88.272,133.784 88.984,131.848 90.408,130.376 C91.832,128.904 93.648,128.168 95.856,128.168 C98.064,128.168 99.888,128.904 101.328,130.376 C102.768,131.848 103.488,133.784 103.488,136.184 C103.488,138.584 102.768,140.52 101.328,141.992 C99.888,143.464 98.064,144.2 95.856,144.2 Z M128.112,149.336 C129.776,149.336 131.328,149.024 132.768,148.4 C134.208,147.776 135.408,146.888 136.368,145.736 L136.368,145.736 L136.368,149 L142.08,149 L142.08,123.368 L136.08,123.368 L136.08,136.328 C136.08,138.824 135.448,140.736 134.184,142.064 C132.92,143.392 131.216,144.056 129.072,144.056 C127.152,144.056 125.672,143.488 124.632,142.352 C123.592,141.216 123.072,139.496 123.072,137.192 L123.072,137.192 L123.072,123.368 L117.072,123.368 L117.072,138.008 C117.072,141.752 118.056,144.576 120.024,146.48 C121.992,148.384 124.688,149.336 128.112,149.336 Z M162,149.336 C164.208,149.336 166.192,148.984 167.952,148.28 C169.712,147.576 171.168,146.536 172.32,145.16 L172.32,145.16 L169.104,141.464 C167.28,143.32 164.96,144.248 162.144,144.248 C159.936,144.248 158.088,143.696 156.6,142.592 C155.112,141.488 154.192,139.992 153.84,138.104 L153.84,138.104 L173.952,138.104 C174.016,137.336 174.048,136.744 174.048,136.328 C174.048,133.704 173.496,131.392 172.392,129.392 C171.288,127.392 169.752,125.84 167.784,124.736 C165.816,123.632 163.584,123.08 161.088,123.08 C158.56,123.08 156.288,123.64 154.272,124.76 C152.256,125.88 150.68,127.44 149.544,129.44 C148.408,131.44 147.84,133.688 147.84,136.184 C147.84,138.712 148.424,140.976 149.592,142.976 C150.76,144.976 152.416,146.536 154.56,147.656 C156.704,148.776 159.184,149.336 162,149.336 Z M168.336,134.12 L153.792,134.12 C154.08,132.232 154.888,130.72 156.216,129.584 C157.544,128.448 159.168,127.88 161.088,127.88 C163.04,127.88 164.672,128.456 165.984,129.608 C167.296,130.76 168.08,132.264 168.336,134.12 L168.336,134.12 Z M199.872,149 L199.872,136.136 L216.096,136.136 L216.096,130.856 L199.872,130.856 L199.872,120.632 L218.16,120.632 L218.16,115.4 L193.632,115.4 L193.632,149 L199.872,149 Z M235.68,149.336 C237.888,149.336 239.872,148.984 241.632,148.28 C243.392,147.576 244.848,146.536 246,145.16 L246,145.16 L242.784,141.464 C240.96,143.32 238.64,144.248 235.824,144.248 C233.616,144.248 231.768,143.696 230.28,142.592 C228.792,141.488 227.872,139.992 227.52,138.104 L227.52,138.104 L247.632,138.104 C247.696,137.336 247.728,136.744 247.728,136.328 C247.728,133.704 247.176,131.392 246.072,129.392 C244.968,127.392 243.432,125.84 241.464,124.736 C239.496,123.632 237.264,123.08 234.768,123.08 C232.24,123.08 229.968,123.64 227.952,124.76 C225.936,125.88 224.36,127.44 223.224,129.44 C222.088,131.44 221.52,133.688 221.52,136.184 C221.52,138.712 222.104,140.976 223.272,142.976 C224.44,144.976 226.096,146.536 228.24,147.656 C230.384,148.776 232.864,149.336 235.68,149.336 Z M242.016,134.12 L227.472,134.12 C227.76,132.232 228.568,130.72 229.896,129.584 C231.224,128.448 232.848,127.88 234.768,127.88 C236.72,127.88 238.352,128.456 239.664,129.608 C240.976,130.76 241.76,132.264 242.016,134.12 L242.016,134.12 Z M261.216,149.336 C263.136,149.336 264.776,149.04 266.136,148.448 C267.496,147.856 268.544,147 269.28,145.88 L269.28,145.88 L269.28,149 L274.944,149 L274.944,133.976 C274.944,130.328 273.944,127.6 271.944,125.792 C269.944,123.984 267.056,123.08 263.28,123.08 C261.168,123.08 259.168,123.352 257.28,123.896 C255.392,124.44 253.776,125.224 252.432,126.248 L252.432,126.248 L254.784,130.616 C255.744,129.816 256.92,129.192 258.312,128.744 C259.704,128.296 261.12,128.072 262.56,128.072 C264.672,128.072 266.264,128.552 267.336,129.512 C268.408,130.472 268.944,131.848 268.944,133.64 L268.944,133.64 L268.944,134.024 L262.32,134.024 C258.64,134.024 255.944,134.72 254.232,136.112 C252.52,137.504 251.664,139.352 251.664,141.656 C251.664,143.128 252.056,144.448 252.84,145.616 C253.624,146.784 254.736,147.696 256.176,148.352 C257.616,149.008 259.296,149.336 261.216,149.336 Z M262.464,144.968 C260.928,144.968 259.728,144.648 258.864,144.008 C258,143.368 257.568,142.504 257.568,141.416 C257.568,139.144 259.296,138.008 262.752,138.008 L262.752,138.008 L268.944,138.008 L268.944,140.984 C268.464,142.264 267.64,143.248 266.472,143.936 C265.304,144.624 263.968,144.968 262.464,144.968 Z M292.272,149.336 C293.392,149.336 294.456,149.192 295.464,148.904 C296.472,148.616 297.328,148.184 298.032,147.608 L298.032,147.608 L296.352,143.336 C295.456,144.04 294.336,144.392 292.992,144.392 C291.84,144.392 290.96,144.064 290.352,143.408 C289.744,142.752 289.44,141.8 289.44,140.552 L289.44,140.552 L289.44,128.36 L296.304,128.36 L296.304,123.56 L289.44,123.56 L289.44,117.704 L283.44,117.704 L283.44,123.56 L279.216,123.56 L279.216,128.36 L283.44,128.36 L283.44,140.696 C283.44,143.512 284.208,145.656 285.744,147.128 C287.28,148.6 289.456,149.336 292.272,149.336 Z M313.824,149.336 C315.488,149.336 317.04,149.024 318.48,148.4 C319.92,147.776 321.12,146.888 322.08,145.736 L322.08,145.736 L322.08,149 L327.792,149 L327.792,123.368 L321.792,123.368 L321.792,136.328 C321.792,138.824 321.16,140.736 319.896,142.064 C318.632,143.392 316.928,144.056 314.784,144.056 C312.864,144.056 311.384,143.488 310.344,142.352 C309.304,141.216 308.784,139.496 308.784,137.192 L308.784,137.192 L308.784,123.368 L302.784,123.368 L302.784,138.008 C302.784,141.752 303.768,144.576 305.736,146.48 C307.704,148.384 310.4,149.336 313.824,149.336 Z M341.664,149 L341.664,136.568 C341.664,134.008 342.32,132.048 343.632,130.688 C344.944,129.328 346.768,128.648 349.104,128.648 C349.52,128.648 349.984,128.696 350.496,128.792 L350.496,128.792 L350.496,123.08 C346.144,123.08 343.104,124.424 341.376,127.112 L341.376,127.112 L341.376,123.368 L335.664,123.368 L335.664,149 L341.664,149 Z M367.872,149.336 C370.08,149.336 372.064,148.984 373.824,148.28 C375.584,147.576 377.04,146.536 378.192,145.16 L378.192,145.16 L374.976,141.464 C373.152,143.32 370.832,144.248 368.016,144.248 C365.808,144.248 363.96,143.696 362.472,142.592 C360.984,141.488 360.064,139.992 359.712,138.104 L359.712,138.104 L379.824,138.104 C379.888,137.336 379.92,136.744 379.92,136.328 C379.92,133.704 379.368,131.392 378.264,129.392 C377.16,127.392 375.624,125.84 373.656,124.736 C371.688,123.632 369.456,123.08 366.96,123.08 C364.432,123.08 362.16,123.64 360.144,124.76 C358.128,125.88 356.552,127.44 355.416,129.44 C354.28,131.44 353.712,133.688 353.712,136.184 C353.712,138.712 354.296,140.976 355.464,142.976 C356.632,144.976 358.288,146.536 360.432,147.656 C362.576,148.776 365.056,149.336 367.872,149.336 Z M374.208,134.12 L359.664,134.12 C359.952,132.232 360.76,130.72 362.088,129.584 C363.416,128.448 365.04,127.88 366.96,127.88 C368.912,127.88 370.544,128.456 371.856,129.608 C373.168,130.76 373.952,132.264 374.208,134.12 L374.208,134.12 Z M393.6,149.336 C397.184,149.336 400.016,148.616 402.096,147.176 C404.176,145.736 405.216,143.816 405.216,141.416 C405.216,139.592 404.744,138.184 403.8,137.192 C402.856,136.2 401.728,135.496 400.416,135.08 C399.104,134.664 397.424,134.296 395.376,133.976 C393.328,133.624 391.816,133.248 390.84,132.848 C389.864,132.448 389.376,131.768 389.376,130.808 C389.376,129.944 389.832,129.248 390.744,128.72 C391.656,128.192 392.992,127.928 394.752,127.928 C397.472,127.928 399.92,128.568 402.096,129.848 L402.096,129.848 L404.4,125.288 C403.28,124.616 401.84,124.08 400.08,123.68 C398.32,123.28 396.56,123.08 394.8,123.08 C391.344,123.08 388.6,123.808 386.568,125.264 C384.536,126.72 383.52,128.664 383.52,131.096 C383.52,132.952 384.008,134.4 384.984,135.44 C385.96,136.48 387.112,137.208 388.44,137.624 C389.768,138.04 391.488,138.408 393.6,138.728 C395.616,139.048 397.08,139.384 397.992,139.736 C398.904,140.088 399.36,140.712 399.36,141.608 C399.36,143.496 397.568,144.44 393.984,144.44 C392.416,144.44 390.824,144.208 389.208,143.744 C387.592,143.28 386.208,142.664 385.056,141.896 L385.056,141.896 L382.752,146.456 C383.936,147.288 385.52,147.976 387.504,148.52 C389.488,149.064 391.52,149.336 393.6,149.336 Z" id="UniqueFeatures" fill="#502966" fill-rule="nonzero"></path>
    </g>
</svg>