<svg width="81" height="81" viewBox="0 0 81 81" fill="none" xmlns="http://www.w3.org/2000/svg">
    <path fill-rule="evenodd" clip-rule="evenodd" d="M61.4278 81H19.5452C8.75067 81 0 72.2464 0 61.4483V19.5517C0 8.75359 8.75067 0 19.5452 0H61.4278C72.2223 0 80.973 8.75359 80.973 19.5517V61.4483C80.973 72.2464 72.2223 81 61.4278 81Z" fill="white"/>
    <path fill-rule="evenodd" clip-rule="evenodd" d="M61.4278 0H19.5452C8.75067 0 0 8.75359 0 19.5517V61.4483C0 72.2464 8.75067 81 19.5452 81H61.4278C72.2223 81 80.973 72.2464 80.973 61.4483V19.5517C80.973 8.75359 72.2223 0 61.4278 0ZM61.4278 1.39655C71.435 1.39655 79.5769 9.54124 79.5769 19.5517V61.4483C79.5769 71.4588 71.435 79.6034 61.4278 79.6034H19.5452C9.53806 79.6034 1.39609 71.4588 1.39609 61.4483V19.5517C1.39609 9.54124 9.53806 1.39655 19.5452 1.39655H61.4278Z" fill="#C2C2C2"/>
    <path fill-rule="evenodd" clip-rule="evenodd" d="M33.5061 18.1468C33.5061 18.1468 20.0059 30.4533 49.5611 47.4828C49.5611 47.4828 77.5707 32.5411 65.6161 18.1552C65.6161 18.1552 59.0014 9.78708 49.5611 17.4569C49.5611 17.4569 45.9396 14.1415 41.3716 14.1401C38.8866 14.1401 36.1223 15.1205 33.5061 18.1468Z" fill="url(#paint0_linear)"/>
    <defs>
        <linearGradient id="paint0_linear" x1="30.4291" y1="14.1401" x2="30.4291" y2="47.4828" gradientUnits="userSpaceOnUse">
            <stop stop-color="#FF5CA8"/>
            <stop offset="1" stop-color="#FF2605"/>
        </linearGradient>
    </defs>
</svg>
