<svg width="94" height="78" viewBox="0 0 94 78" fill="none" xmlns="http://www.w3.org/2000/svg">
    <path fill-rule="evenodd" clip-rule="evenodd" d="M46.9367 13.5986C47.3795 13.2109 47.7429 12.9158 48.0781 12.5937C50.6621 10.1123 53.0917 7.4474 55.8486 5.17331C64.347 -1.83651 77.0907 -1.5947 85.5015 5.54452C89.947 9.31765 92.6464 14.0441 93.5627 19.7762C93.6512 20.33 94.3669 22.3061 93.2695 27.5855C92.3537 31.992 90.3386 35.8229 87.1478 39.0019C74.9931 51.1129 62.8111 63.1975 50.6375 75.2904C49.4507 76.4692 48.1932 77.049 46.9367 77.0314V13.5986Z" fill="#A00B4F"/>
    <path fill-rule="evenodd" clip-rule="evenodd" d="M46.9367 13.5986C47.2741 13.2109 47.551 12.9158 47.8066 12.5937C49.7763 10.1123 51.628 7.4474 53.7295 5.17331C60.2072 -1.83651 69.9209 -1.5947 76.3321 5.54452C79.7205 9.31765 81.778 14.0441 82.4763 19.7762C82.5438 20.33 83.0895 22.3061 82.2529 27.5855C81.5547 31.992 80.0188 35.8229 77.5866 39.0019C68.3222 51.1129 59.0365 63.1975 49.7573 75.2904C48.8529 76.4692 47.8945 77.049 46.9367 77.0314V13.5986Z" fill="#E50E64"/>
    <path fill-rule="evenodd" clip-rule="evenodd" d="M46.9367 13.5986C47.1605 13.2109 47.3437 12.9158 47.5136 12.5937C48.8182 10.1123 50.0454 7.4474 51.4379 5.17331C55.7304 -1.83651 62.1665 -1.5947 66.4147 5.54452C68.6599 9.31765 70.0231 14.0441 70.4859 19.7762C70.531 20.33 70.8922 22.3061 70.338 27.5855C69.8755 31.992 68.8579 35.8229 67.2461 39.0019C61.1069 51.1129 54.9545 63.1975 48.8061 75.2904C48.2068 76.4692 47.5714 77.049 46.9367 77.0314V13.5986Z" fill="#FF8B00"/>
    <path fill-rule="evenodd" clip-rule="evenodd" d="M46.9367 13.5983C46.4938 13.2106 46.1307 12.9156 45.7953 12.5934C43.2114 10.112 40.7819 7.44715 38.0248 5.17306C29.5263 -1.83675 16.7828 -1.59494 8.37188 5.54428C3.92664 9.3174 1.22719 14.0439 0.310985 19.7759C0.222378 20.3298 -0.493361 22.3058 0.60398 27.5853C1.51988 31.9918 3.53484 35.8227 6.72551 39.0016C18.8805 51.1127 31.0623 63.1973 43.2359 75.2901C44.4227 76.4689 45.6804 77.0488 46.9367 77.0312V13.5983Z" fill="#FE493C"/>
</svg>
