<svg width="81" height="51" viewBox="0 0 81 51" fill="none" xmlns="http://www.w3.org/2000/svg">
    <path fill-rule="evenodd" clip-rule="evenodd" d="M13.7136 18.8478C13.7136 15.0619 10.6434 11.9925 6.85656 11.9925C3.07018 11.9925 0 15.0619 0 18.8478C0 23.6603 6.85656 27.6595 6.85656 27.6595C6.85656 27.6595 13.7136 23.4153 13.7136 18.8478ZM20.2671 27.6595C20.2671 27.6595 12.1566 31.7229 12.1566 37.3137C12.1566 41.7916 15.7876 45.4222 20.2671 45.4222C24.746 45.4222 28.3776 41.7916 28.3776 37.3137C28.3776 31.5988 20.2671 27.6595 20.2671 27.6595ZM44.0556 15.8058C44.0556 10.3391 39.622 5.90704 34.1544 5.90704C28.6863 5.90704 24.2546 10.3391 24.2546 15.8058C24.2546 22.5605 34.1544 27.6595 34.1544 27.6595C34.1544 27.6595 44.0556 22.5605 44.0556 15.8058ZM50.6091 27.6595C50.6091 27.6595 39.6531 32.2105 39.6531 39.9885C39.6531 46.0377 44.5566 50.9417 50.6091 50.9417C56.6598 50.9417 61.567 46.0377 61.567 39.9885C61.567 32.3332 50.6091 27.6595 50.6091 27.6595ZM67.4495 0C60.3517 0 54.5947 5.75317 54.5947 12.8515C54.5947 21.583 67.4495 27.6595 67.4495 27.6595C67.4495 27.6595 80.3044 21.8275 80.3044 12.8515C80.3044 5.75317 74.5492 0 67.4495 0Z" fill="#00B4FF"/>
</svg>
