<svg width="50" height="50" viewBox="0 0 50 50" fill="none" xmlns="http://www.w3.org/2000/svg">
    <path fill-rule="evenodd" clip-rule="evenodd" d="M25.8321 49.9856C39.6395 49.5222 50.454 37.9544 49.9853 24.155C49.5202 10.3557 37.9602 -0.445705 24.167 0.0141552C10.3774 0.47758 -0.440638 12.0347 0.0138095 25.8341C0.468257 39.6334 12.0247 50.4491 25.8321 49.9856Z" fill="#7E3787"/>
    <path fill-rule="evenodd" clip-rule="evenodd" d="M27.0057 13.0036C20.1514 13.2292 14.7818 18.7736 15.0068 25.4022C15.2355 32.0235 20.9763 37.2151 27.8307 36.9931C30.5379 36.9058 33.0089 35.9818 35 34.4901C31.794 32.4164 29.6267 28.9421 29.488 24.9293C29.3493 20.9237 31.2728 17.3148 34.3251 15.0337C32.3452 13.7531 29.9755 13 27.4257 13C27.287 13 27.1482 13 27.0057 13.0036Z" fill="white"/>
    <mask id="mask0" mask-type="alpha" maskUnits="userSpaceOnUse" x="15" y="13" width="20" height="24">
        <path fill-rule="evenodd" clip-rule="evenodd" d="M27.0057 13.0036C20.1514 13.2292 14.7818 18.7736 15.0068 25.4022C15.2355 32.0235 20.9763 37.2151 27.8307 36.9931C30.5379 36.9058 33.0089 35.9818 35 34.4901C31.794 32.4164 29.6267 28.9421 29.488 24.9293C29.3493 20.9237 31.2728 17.3148 34.3251 15.0337C32.3452 13.7531 29.9755 13 27.4257 13C27.287 13 27.1482 13 27.0057 13.0036Z" fill="white"/>
    </mask>
    <g mask="url(#mask0)">
    </g>
</svg>
