<svg width="40" height="96" viewBox="0 0 40 96" fill="none" xmlns="http://www.w3.org/2000/svg">
    <path fill-rule="evenodd" clip-rule="evenodd" d="M13.8284 2.32548C12.0583 2.31705 10.6166 3.77444 10.6071 5.58153L10.5686 12.7119L28.8119 12.7995L28.8503 5.67125C28.8598 3.86416 27.4333 2.39142 25.6632 2.38299L13.8284 2.32548Z" fill="#861A7B"/>
    <path fill-rule="evenodd" clip-rule="evenodd" d="M25.6588 3.1491L13.826 3.09163C12.4718 3.08637 11.3642 4.20448 11.356 5.58684L11.321 11.9494L28.0661 12.0313L28.0992 5.66671C28.1029 4.99697 27.8499 4.36563 27.3901 3.89201C26.9303 3.41634 26.2887 3.16009 25.6588 3.1491ZM10.5542 13.4778C10.3582 13.4744 10.1736 13.3915 10.0341 13.2502C9.8946 13.1048 9.81596 12.9115 9.81753 12.7073L9.85594 5.57903C9.86678 3.35334 11.6526 1.54867 13.8327 1.56017L25.6655 1.61764C26.7457 1.612 27.7143 2.04549 28.457 2.81403C29.1998 3.58052 29.6041 4.59638 29.5993 5.67452L29.5629 12.8028C29.5613 13.005 29.4819 13.1996 29.3414 13.3422C29.1989 13.4867 29.0095 13.5651 28.8094 13.5657L10.5642 13.478L10.5542 13.4778Z" fill="#861A7B"/>
    <path fill-rule="evenodd" clip-rule="evenodd" d="M3.80293 29.7671C2.56009 32.8984 1.91359 36.2444 1.89465 39.6217L1.64249 86.9571C1.62642 89.7116 3.32365 92.2918 5.92538 93.0172C9.85882 94.1151 13.4662 91.0884 13.4876 87.2271C13.4695 90.5534 16.1202 93.2871 19.3784 93.3031C22.6367 93.3191 25.3163 90.6111 25.3344 87.2849C25.313 91.144 28.8881 94.2083 32.8352 93.1479C35.4438 92.4481 37.1668 89.8827 37.1829 87.1302L37.4351 39.7928C37.454 36.4155 36.8424 33.0639 35.6331 29.9204L34.6285 27.3095L4.83449 27.1651L3.80293 29.7671Z" fill="#861A7B"/>
    <path fill-rule="evenodd" clip-rule="evenodd" d="M37.2569 73.1366L1.71645 72.9655L1.86618 44.9057L37.4066 45.0768L37.2569 73.1366Z" fill="#FEFEFE"/>
    <path fill-rule="evenodd" clip-rule="evenodd" d="M11.0719 13.4799L4.4956 30.0551C3.28615 33.1074 2.66183 36.3291 2.64631 39.6248L2.39211 86.9622C2.37625 89.4758 3.9143 91.6631 6.12388 92.2796C7.73033 92.7263 9.38614 92.408 10.6758 91.4075C11.9776 90.3989 12.7283 88.8743 12.7391 87.2245C12.7425 86.8019 13.0785 86.4606 13.4925 86.4617L13.5025 86.4618C13.9125 86.469 14.2405 86.8117 14.2392 87.2323C14.2287 88.635 14.7637 89.9615 15.7383 90.9669C16.7128 91.9744 17.9991 92.54 19.3834 92.5376C22.2356 92.5506 24.5671 90.1939 24.5839 87.2842L24.5839 87.2822L24.5839 87.2801C24.5853 86.8575 24.9233 86.5162 25.3393 86.5194L25.3473 86.5195C25.7573 86.5267 26.0853 86.8693 26.084 87.288C26.0752 88.9399 26.8106 90.47 28.099 91.491C29.3795 92.5038 31.0339 92.839 32.6457 92.4077C34.8604 91.8112 36.4206 89.6391 36.4325 87.1255L36.6846 39.7901C36.7041 36.4945 36.1123 33.2679 34.9337 30.2005L28.5351 13.5642L11.0719 13.4799ZM7.43992 94.0077C6.87201 93.9978 6.29534 93.9163 5.72607 93.7552C2.86355 92.9579 0.874071 90.1602 0.892058 86.9524L1.14621 39.617C1.16315 36.1253 1.82475 32.7163 3.10743 29.4795L9.87413 12.4236C9.98721 12.1336 10.2646 11.9444 10.5706 11.9457L29.0538 12.0355C29.3742 12.0166 29.6346 12.2274 29.7475 12.5214L36.3317 29.6408C37.5792 32.8891 38.2036 36.3062 38.1847 39.7959L37.9326 87.1313C37.9166 90.3391 35.8978 93.1159 33.0259 93.8887C30.9678 94.447 28.8332 94.0095 27.1797 92.7002C26.3866 92.0738 25.7581 91.295 25.3172 90.4214C24.1911 92.5991 21.9469 94.0813 19.3747 94.069C17.6183 94.0772 15.9308 93.3432 14.6713 92.0449C14.182 91.5422 13.7798 90.9756 13.4724 90.3638C13.0212 91.234 12.3836 92.007 11.5827 92.6261C10.3782 93.5608 8.9277 94.0337 7.43992 94.0077Z" fill="#861A7B"/>
    <path fill-rule="evenodd" clip-rule="evenodd" d="M19.4629 67.8999C15.644 67.921 12.5314 64.7158 12.5108 60.7394C12.4922 56.7632 19.3789 50.1404 19.3789 50.1404C19.3789 50.1404 26.3277 56.6841 26.3463 60.6603C26.3649 64.6366 23.2839 67.8788 19.4629 67.8999Z" fill="#B365A9"/>
    <mask id="mask0" mask-type="alpha" maskUnits="userSpaceOnUse" x="13" y="47" width="15" height="19">
        <path fill-rule="evenodd" clip-rule="evenodd" d="M13.3437 58.4786C13.3623 62.457 16.4748 65.6622 20.2938 65.6411C24.1147 65.62 27.1958 62.3778 27.1792 58.3995C27.1606 54.4253 20.2117 47.8796 20.2117 47.8796C20.2117 47.8796 13.3251 54.5024 13.3437 58.4786Z" fill="white"/>
    </mask>
    <g mask="url(#mask0)">
        <path fill-rule="evenodd" clip-rule="evenodd" d="M13.3763 65.57L27.2538 65.4916L27.1699 47.8403L13.2924 47.9187L13.3763 65.57Z" fill="#861A7B"/>
    </g>
</svg>
