<svg width="98" height="80" viewBox="0 0 98 80" fill="none" xmlns="http://www.w3.org/2000/svg">
    <path fill-rule="evenodd" clip-rule="evenodd" d="M33.8959 37.4409C34.0842 32.4042 32.6776 16.898 8.89821 12.8973C7.78754 12.7117 6.79793 13.6337 6.87864 14.7643C7.34174 21.2834 10.5546 40.1312 32.2318 39.132C33.1369 39.0895 33.8613 38.3493 33.8959 37.4409Z" fill="#861A7B"/>
    <path fill-rule="evenodd" clip-rule="evenodd" d="M42.6229 28.1913C44.5906 24.4978 49.1658 12.4048 32.8613 0.688668C32.1004 0.141709 31.0262 0.468338 30.6765 1.34193C28.6569 6.38053 24.2181 21.6335 40.7667 28.8426C41.4565 29.1441 42.2693 28.8561 42.6229 28.1913Z" fill="#861A7B"/>
    <path fill-rule="evenodd" clip-rule="evenodd" d="M82.3882 32.8023C79.6692 26.9462 73.7296 22.9184 66.8869 23.0035C66.1471 23.0131 65.4208 23.075 64.7079 23.1774C61.7486 18.0596 56.2126 14.6483 49.9079 14.7275C43.6033 14.8068 38.1537 18.3533 35.3194 23.5427C34.6046 23.4576 33.8782 23.4132 33.1384 23.4229C26.2938 23.5079 20.458 27.6826 17.8831 33.6044C12.0588 36.3392 8.05617 42.3133 8.14072 49.1957C8.25601 58.5694 15.9039 66.0741 25.2235 65.9581C32.0662 65.8731 37.9039 61.7004 40.4788 55.7766C43.7359 54.2459 46.4222 51.7043 48.1439 48.5521C48.8588 48.6371 49.5851 48.6816 50.3249 48.6719C51.0647 48.6622 51.7911 48.6004 52.504 48.498C54.3006 51.6058 57.0485 54.0816 60.344 55.5292C63.063 61.3873 69.0006 65.4131 75.8453 65.3281C85.1649 65.2121 92.6263 57.5199 92.511 48.1462C92.4265 41.2638 88.2759 35.3922 82.3882 32.8023Z" fill="#FEFEFE"/>
    <path fill-rule="evenodd" clip-rule="evenodd" d="M33.3179 24.1467C33.2602 24.1467 33.2026 24.1467 33.1449 24.1467C26.8153 24.2278 21.0833 28.0527 18.5429 33.8953L18.4334 34.1446L18.1855 34.2606C12.4439 36.9586 8.78138 42.8187 8.86016 49.1889C8.91397 53.5279 10.6434 57.5866 13.7333 60.6171C16.8212 63.6456 20.8949 65.3 25.2127 65.2343C31.5462 65.1551 37.2802 61.3283 39.8186 55.4857L39.9262 55.2364L40.1721 55.1204C43.2601 53.6689 45.8657 51.2125 47.5144 48.2032L47.7469 47.7761L48.2293 47.8321C48.9383 47.9152 49.6339 47.9597 50.318 47.9462C50.9944 47.9384 51.6785 47.8843 52.4029 47.7819L52.8833 47.7142L53.1273 48.1356C54.8433 51.1004 57.5085 53.4911 60.633 54.8653L60.8828 54.9755L60.9962 55.2228C63.6498 60.9398 69.3838 64.6062 75.6366 64.6062C75.7058 64.6062 75.7711 64.6062 75.8364 64.6043C84.7429 64.4941 91.8988 57.115 91.7912 48.1549C91.7124 41.7866 87.9077 36.0213 82.1008 33.4662L81.8509 33.358L81.7357 33.1087C79.08 27.3936 73.348 23.7273 67.0952 23.7273C67.028 23.7273 66.9626 23.7273 66.8973 23.7292C66.219 23.7369 65.5176 23.793 64.8105 23.8935L64.3301 23.963L64.086 23.5417C61.1922 18.5379 55.854 15.4513 50.1162 15.4513C50.049 15.4513 49.9837 15.4513 49.9183 15.4513C44.1056 15.5248 38.7559 18.7582 35.9524 23.8915L35.7179 24.3187L35.2356 24.2626C34.5861 24.1853 33.9405 24.1467 33.3179 24.1467ZM25.009 66.6839C20.3915 66.6839 16.0391 64.9038 12.7264 61.6549C9.36169 58.3539 7.47856 53.9318 7.41899 49.2044C7.33636 42.3587 11.2179 36.0541 17.3324 33.0642C20.1513 26.8447 26.3234 22.7841 33.1277 22.6971C33.7176 22.6855 34.3171 22.7164 34.9262 22.7725C38.0373 17.4266 43.7309 14.0791 49.8991 14.0018C56.0289 13.9477 61.8417 17.1309 65.0833 22.3975C65.6925 22.326 66.292 22.2874 66.8781 22.2796C73.6555 22.1965 79.9524 26.1006 82.9251 32.2486C89.1106 35.0858 93.1479 41.2918 93.2324 48.1394C93.3496 57.8958 85.5557 65.934 75.8557 66.0538C69.0629 66.0847 62.7794 62.2348 59.8067 56.0829C56.6573 54.6372 53.9536 52.2387 52.1281 49.2778C51.5171 49.3493 50.9137 49.3899 50.3334 49.3957C49.7531 49.4054 49.1459 49.3783 48.5386 49.3223C46.7842 52.3296 44.1402 54.7938 41.0291 56.3168C38.2102 62.5382 32.0381 66.5969 25.2319 66.6839C25.157 66.6839 25.084 66.6839 25.009 66.6839Z" fill="#861A7B"/>
    <path fill-rule="evenodd" clip-rule="evenodd" d="M2.65541 44.0805C5.3187 64.2311 22.6858 79.8011 43.3735 79.544L58.0331 79.3623C78.7207 79.1053 95.7016 63.6145 97.8672 43.4021L2.65541 44.0805Z" fill="#861A7B"/>
    <path fill-rule="evenodd" clip-rule="evenodd" d="M31.6953 35.9832C32.5446 35.9736 33.2422 36.6577 33.2537 37.512C33.2633 38.3682 32.5831 39.0698 31.7337 39.0794C30.8825 39.091 30.185 38.4049 30.1753 37.5507C30.1638 36.6964 30.846 35.9929 31.6953 35.9832Z" fill="#861A7B"/>
    <path fill-rule="evenodd" clip-rule="evenodd" d="M51.1831 24.5144C52.0324 24.5048 52.73 25.189 52.7415 26.0432C52.7511 26.8994 52.0709 27.601 51.2215 27.6107C50.3703 27.6223 49.6727 26.9361 49.6631 26.0819C49.6516 25.2276 50.3338 24.5241 51.1831 24.5144Z" fill="#861A7B"/>
    <path fill-rule="evenodd" clip-rule="evenodd" d="M45.9003 33.0967C46.7497 33.087 47.4472 33.7712 47.4587 34.6255C47.4683 35.4817 46.7881 36.1832 45.9388 36.1929C45.0875 36.2045 44.39 35.5184 44.3804 34.6641C44.3688 33.8099 45.051 33.1064 45.9003 33.0967Z" fill="#861A7B"/>
    <path fill-rule="evenodd" clip-rule="evenodd" d="M71.2985 32.7809C72.1478 32.7712 72.8453 33.4554 72.8568 34.3097C72.8665 35.1659 72.1862 35.8674 71.3369 35.8771C70.4856 35.8887 69.7881 35.2026 69.7785 34.3483C69.767 33.4941 70.4491 32.7906 71.2985 32.7809Z" fill="#861A7B"/>
    <path fill-rule="evenodd" clip-rule="evenodd" d="M62.8324 32.8862C63.6818 32.8766 64.3793 33.5608 64.3908 34.415C64.4004 35.2712 63.7202 35.9728 62.8709 35.9825C62.0196 35.9941 61.3221 35.3079 61.3125 34.4537C61.3009 33.5994 61.9831 32.8959 62.8324 32.8862Z" fill="#861A7B"/>
    <path fill-rule="evenodd" clip-rule="evenodd" d="M28.9302 30.2108C29.7795 30.2011 30.477 30.8853 30.4886 31.7395C30.4982 32.5957 29.8179 33.2973 28.9686 33.307C28.1173 33.3186 27.4198 32.6325 27.4102 31.7782C27.3987 30.9239 28.0808 30.2204 28.9302 30.2108Z" fill="#861A7B"/>
    <path fill-rule="evenodd" clip-rule="evenodd" d="M27.9978 35.5165L0.000579834 6.74222L1.02862 5.72754L29.0259 34.5038L27.9978 35.5165Z" fill="#FEFEFE"/>
</svg>
