<svg width="50" height="50" viewBox="0 0 50 50" fill="none" xmlns="http://www.w3.org/2000/svg">
    <path fill-rule="evenodd" clip-rule="evenodd" d="M25.8309 49.9854C39.64 49.522 50.4534 37.9543 49.9854 24.155C49.5209 10.3558 37.9595 -0.449054 24.1681 0.0143668C10.3766 0.477788 -0.436694 12.0384 0.0135662 25.8341C0.463826 39.6333 12.0252 50.4524 25.8309 49.9854Z" fill="#7E3787"/>
    <path fill-rule="evenodd" clip-rule="evenodd" d="M12.007 25.4349C11.7736 18.2588 17.3973 12.2528 24.5688 12.0072C24.7197 12 24.8669 12 25.0177 12C31.9918 12 37.7591 17.5365 37.9926 24.5609C38.2332 31.7371 32.6094 37.7539 25.4343 37.9923C18.252 38.2378 12.244 32.6111 12.007 25.4349ZM21.5607 27.968C22.4887 29.1413 23.6834 29.7138 25.1838 29.6604C26.6807 29.6142 27.8434 28.9707 28.6967 27.7191C28.9004 27.8494 29.1005 27.9777 29.3007 28.106L29.3012 28.1063L29.3016 28.1065C29.702 28.3632 30.1025 28.6199 30.5314 28.8924C29.2763 30.6809 27.6194 31.7049 25.4434 31.8293C23.1216 31.9644 21.2727 31.0684 19.8078 29.2516C20.2807 28.8996 20.7216 28.5724 21.1589 28.2489C21.2285 28.1972 21.2992 28.1488 21.3742 28.0976L21.3744 28.0975L21.3744 28.0974L21.3745 28.0974C21.4334 28.057 21.495 28.0149 21.5607 27.968ZM20.9669 20.6613C20.0034 20.6898 19.2532 21.4684 19.2709 22.4178C19.2958 23.36 20.0958 24.1173 21.0487 24.096C22.0229 24.0711 22.7803 23.2996 22.7554 22.3538C22.7305 21.3902 21.9803 20.6613 21.0238 20.6613H20.9669ZM26.6238 22.1724C26.6025 21.2231 27.3563 20.4409 28.3198 20.4124H28.3732C29.3296 20.4124 30.0798 21.1449 30.1047 22.1049C30.1296 23.0542 29.3758 23.8258 28.3981 23.8507C27.4487 23.8756 26.6452 23.1147 26.6238 22.1724Z" fill="white"/>
    <mask id="mask0" mask-type="alpha" maskUnits="userSpaceOnUse" x="12" y="12" width="26" height="26">
        <path fill-rule="evenodd" clip-rule="evenodd" d="M12.007 25.4349C11.7736 18.2588 17.3973 12.2528 24.5688 12.0072C24.7197 12 24.8669 12 25.0177 12C31.9918 12 37.7591 17.5365 37.9926 24.5609C38.2332 31.7371 32.6094 37.7539 25.4343 37.9923C18.252 38.2378 12.244 32.6111 12.007 25.4349ZM21.5607 27.968C22.4887 29.1413 23.6834 29.7138 25.1838 29.6604C26.6807 29.6142 27.8434 28.9707 28.6967 27.7191C28.9004 27.8494 29.1005 27.9777 29.3007 28.106L29.3012 28.1063L29.3016 28.1065C29.702 28.3632 30.1025 28.6199 30.5314 28.8924C29.2763 30.6809 27.6194 31.7049 25.4434 31.8293C23.1216 31.9644 21.2727 31.0684 19.8078 29.2516C20.2807 28.8996 20.7216 28.5724 21.1589 28.2489C21.2285 28.1972 21.2992 28.1488 21.3742 28.0976L21.3744 28.0975L21.3744 28.0974L21.3745 28.0974C21.4334 28.057 21.495 28.0149 21.5607 27.968ZM20.9669 20.6613C20.0034 20.6898 19.2532 21.4684 19.2709 22.4178C19.2958 23.36 20.0958 24.1173 21.0487 24.096C22.0229 24.0711 22.7803 23.2996 22.7554 22.3538C22.7305 21.3902 21.9803 20.6613 21.0238 20.6613H20.9669ZM26.6238 22.1724C26.6025 21.2231 27.3563 20.4409 28.3198 20.4124H28.3732C29.3296 20.4124 30.0798 21.1449 30.1047 22.1049C30.1296 23.0542 29.3758 23.8258 28.3981 23.8507C27.4487 23.8756 26.6452 23.1147 26.6238 22.1724Z" fill="white"/>
    </mask>
    <g mask="url(#mask0)">
    </g>
</svg>
