<svg width="50" height="50" viewBox="0 0 50 50" fill="none" xmlns="http://www.w3.org/2000/svg">
    <path fill-rule="evenodd" clip-rule="evenodd" d="M25.7246 49.9891C39.5337 49.5863 50.3966 38.0606 49.9889 24.2604C49.5812 10.4601 38.0695 -0.395364 24.2746 0.0110491C10.4797 0.413897 -0.383168 11.9218 0.0103635 25.7256C0.40035 39.5294 11.9156 50.392 25.7246 49.9891Z" fill="#7E3787"/>
    <path fill-rule="evenodd" clip-rule="evenodd" d="M33.814 14.778C32.7158 14.8095 31.6246 14.8411 30.5333 14.8727C28.2772 14.9394 26.4807 16.785 26.5474 18.9744C26.6421 22.2937 26.7404 25.613 26.8386 28.9323C26.8421 29.1429 27.0386 29.3218 27.2561 29.3148C28.214 29.2867 29.1754 29.2587 30.1298 29.2306C30.193 31.3569 30.2526 33.4832 30.3193 35.6025C30.3439 36.4762 31.1053 37.1744 32.0035 37.1464C32.5544 37.1323 33.0982 37.1148 33.6491 37.1008C34.5439 37.0762 35.2702 36.3323 35.2421 35.4622C35.0491 28.8236 34.8526 22.185 34.6561 15.5464C34.6456 15.1183 34.2772 14.778 33.8386 14.778H33.814ZM22.2386 15.1148C21.7895 15.1288 21.4281 15.5008 21.4421 15.9323C21.4912 17.6622 21.5404 19.385 21.593 21.1113C21.6035 21.5429 21.2421 21.9218 20.793 21.9323C20.3439 21.9464 19.9649 21.5955 19.9509 21.1604C19.8982 19.4341 19.8526 17.7078 19.8 15.9815C19.786 15.5499 19.4035 15.199 18.9544 15.2095C18.5088 15.2236 18.1474 15.5955 18.1614 16.0306C18.2105 17.7534 18.2561 19.4832 18.3088 21.206C18.3193 21.6411 17.9614 22.0166 17.5123 22.0271C17.0597 22.0446 16.6807 21.6902 16.6702 21.2551C16.6175 19.5288 16.5684 17.8025 16.5193 16.0797C16.5053 15.6411 16.1193 15.2902 15.6737 15.3043C15.2246 15.3183 14.8632 15.6902 14.8772 16.1253C14.9544 18.778 15.0316 21.4341 15.1053 24.0902C15.1333 25.0973 15.8281 25.9885 16.814 26.2937C16.9088 29.5288 17.0035 32.7569 17.0947 35.9885C17.1193 36.8622 17.8842 37.5604 18.7825 37.5323C19.3298 37.5183 19.8772 37.5008 20.4281 37.4867C21.3228 37.4622 22.0456 36.7183 22.0175 35.8481C21.9263 32.6166 21.8316 29.3815 21.7368 26.1534C22.7053 25.7885 23.3404 24.8622 23.3123 23.8481C23.2386 21.1955 23.1579 18.5429 23.0842 15.8867C23.0702 15.4551 22.6982 15.1148 22.2632 15.1148H22.2386Z" fill="white"/>
    <mask id="mask0" mask-type="alpha" maskUnits="userSpaceOnUse" x="14" y="14" width="22" height="24">
        <path fill-rule="evenodd" clip-rule="evenodd" d="M33.814 14.778C32.7158 14.8095 31.6246 14.8411 30.5333 14.8727C28.2772 14.9394 26.4807 16.785 26.5474 18.9744C26.6421 22.2937 26.7404 25.613 26.8386 28.9323C26.8421 29.1429 27.0386 29.3218 27.2561 29.3148C28.214 29.2867 29.1754 29.2587 30.1298 29.2306C30.193 31.3569 30.2526 33.4832 30.3193 35.6025C30.3439 36.4762 31.1053 37.1744 32.0035 37.1464C32.5544 37.1323 33.0982 37.1148 33.6491 37.1008C34.5439 37.0762 35.2702 36.3323 35.2421 35.4622C35.0491 28.8236 34.8526 22.185 34.6561 15.5464C34.6456 15.1183 34.2772 14.778 33.8386 14.778H33.814ZM22.2386 15.1148C21.7895 15.1288 21.4281 15.5008 21.4421 15.9323C21.4912 17.6622 21.5404 19.385 21.593 21.1113C21.6035 21.5429 21.2421 21.9218 20.793 21.9323C20.3439 21.9464 19.9649 21.5955 19.9509 21.1604C19.8982 19.4341 19.8526 17.7078 19.8 15.9815C19.786 15.5499 19.4035 15.199 18.9544 15.2095C18.5088 15.2236 18.1474 15.5955 18.1614 16.0306C18.2105 17.7534 18.2561 19.4832 18.3088 21.206C18.3193 21.6411 17.9614 22.0166 17.5123 22.0271C17.0597 22.0446 16.6807 21.6902 16.6702 21.2551C16.6175 19.5288 16.5684 17.8025 16.5193 16.0797C16.5053 15.6411 16.1193 15.2902 15.6737 15.3043C15.2246 15.3183 14.8632 15.6902 14.8772 16.1253C14.9544 18.778 15.0316 21.4341 15.1053 24.0902C15.1333 25.0973 15.8281 25.9885 16.814 26.2937C16.9088 29.5288 17.0035 32.7569 17.0947 35.9885C17.1193 36.8622 17.8842 37.5604 18.7825 37.5323C19.3298 37.5183 19.8772 37.5008 20.4281 37.4867C21.3228 37.4622 22.0456 36.7183 22.0175 35.8481C21.9263 32.6166 21.8316 29.3815 21.7368 26.1534C22.7053 25.7885 23.3404 24.8622 23.3123 23.8481C23.2386 21.1955 23.1579 18.5429 23.0842 15.8867C23.0702 15.4551 22.6982 15.1148 22.2632 15.1148H22.2386Z" fill="white"/>
    </mask>
    <g mask="url(#mask0)">
    </g>
</svg>
