<svg width="411" height="270" viewBox="0 0 411 270" fill="none" xmlns="http://www.w3.org/2000/svg">
    <g clip-path="url(#clip0)">
        <path d="M18.96 149.48C14.32 149.48 10.704 148.184 8.112 145.592C5.52 142.968 4.224 139.224 4.224 134.36V115.4H10.464V134.12C10.464 140.712 13.312 144.008 19.008 144.008C24.672 144.008 27.504 140.712 27.504 134.12V115.4H33.648V134.36C33.648 139.224 32.352 142.968 29.76 145.592C27.2 148.184 23.6 149.48 18.96 149.48ZM56.355 123.08C59.587 123.08 62.179 124.024 64.131 125.912C66.083 127.8 67.059 130.6 67.059 134.312V149H61.059V135.08C61.059 132.84 60.531 131.16 59.475 130.04C58.419 128.888 56.915 128.312 54.963 128.312C52.755 128.312 51.011 128.984 49.731 130.328C48.451 131.64 47.811 133.544 47.811 136.04V149H41.811V123.368H47.523V126.68C48.515 125.496 49.763 124.6 51.267 123.992C52.771 123.384 54.467 123.08 56.355 123.08ZM74.6704 123.368H80.6704V149H74.6704V123.368ZM77.6944 119.144C76.6064 119.144 75.6944 118.808 74.9584 118.136C74.2224 117.432 73.8544 116.568 73.8544 115.544C73.8544 114.52 74.2224 113.672 74.9584 113C75.6944 112.296 76.6064 111.944 77.6944 111.944C78.7824 111.944 79.6944 112.28 80.4304 112.952C81.1664 113.592 81.5344 114.408 81.5344 115.4C81.5344 116.456 81.1664 117.352 80.4304 118.088C79.7264 118.792 78.8144 119.144 77.6944 119.144ZM113.601 123.368V158.312H107.601V145.88C105.585 148.184 102.849 149.336 99.3934 149.336C96.8974 149.336 94.6574 148.792 92.6734 147.704C90.7214 146.616 89.1854 145.08 88.0654 143.096C86.9774 141.112 86.4334 138.808 86.4334 136.184C86.4334 133.592 86.9934 131.304 88.1134 129.32C89.2334 127.336 90.7694 125.8 92.7214 124.712C94.6734 123.624 96.8974 123.08 99.3934 123.08C101.153 123.08 102.753 123.384 104.193 123.992C105.665 124.6 106.897 125.512 107.889 126.728V123.368H113.601ZM100.065 144.2C102.273 144.2 104.097 143.464 105.537 141.992C106.977 140.52 107.697 138.584 107.697 136.184C107.697 133.784 106.977 131.848 105.537 130.376C104.097 128.904 102.273 128.168 100.065 128.168C97.8574 128.168 96.0334 128.904 94.5934 130.376C93.1854 131.848 92.4814 133.784 92.4814 136.184C92.4814 138.584 93.1854 140.52 94.5934 141.992C96.0334 143.464 97.8574 144.2 100.065 144.2ZM146.268 123.368V149H140.556V145.736C139.596 146.888 138.396 147.784 136.956 148.424C135.516 149.032 133.964 149.336 132.3 149.336C128.876 149.336 126.172 148.392 124.188 146.504C122.236 144.584 121.26 141.752 121.26 138.008V123.368H127.26V137.192C127.26 139.496 127.772 141.224 128.796 142.376C129.852 143.496 131.34 144.056 133.26 144.056C135.404 144.056 137.1 143.4 138.348 142.088C139.628 140.744 140.268 138.824 140.268 136.328V123.368H146.268ZM178.22 136.328C178.22 136.744 178.188 137.336 178.124 138.104H158.012C158.364 139.992 159.276 141.496 160.748 142.616C162.252 143.704 164.108 144.248 166.316 144.248C169.132 144.248 171.452 143.32 173.276 141.464L176.492 145.16C175.34 146.536 173.884 147.576 172.124 148.28C170.364 148.984 168.38 149.336 166.172 149.336C163.356 149.336 160.876 148.776 158.732 147.656C156.588 146.536 154.924 144.984 153.74 143C152.588 140.984 152.012 138.712 152.012 136.184C152.012 133.688 152.572 131.448 153.692 129.464C154.844 127.448 156.428 125.88 158.444 124.76C160.46 123.64 162.732 123.08 165.26 123.08C167.756 123.08 169.98 123.64 171.932 124.76C173.916 125.848 175.452 127.4 176.54 129.416C177.66 131.4 178.22 133.704 178.22 136.328ZM165.26 127.88C163.34 127.88 161.708 128.456 160.364 129.608C159.052 130.728 158.252 132.232 157.964 134.12H172.508C172.252 132.264 171.468 130.76 170.156 129.608C168.844 128.456 167.212 127.88 165.26 127.88ZM204.065 120.632V130.856H220.289V136.136H204.065V149H197.825V115.4H222.353V120.632H204.065ZM251.204 136.328C251.204 136.744 251.172 137.336 251.108 138.104H230.996C231.348 139.992 232.26 141.496 233.732 142.616C235.236 143.704 237.092 144.248 239.3 144.248C242.116 144.248 244.436 143.32 246.26 141.464L249.476 145.16C248.324 146.536 246.868 147.576 245.108 148.28C243.348 148.984 241.364 149.336 239.156 149.336C236.34 149.336 233.86 148.776 231.716 147.656C229.572 146.536 227.908 144.984 226.724 143C225.572 140.984 224.996 138.712 224.996 136.184C224.996 133.688 225.556 131.448 226.676 129.464C227.828 127.448 229.412 125.88 231.428 124.76C233.444 123.64 235.716 123.08 238.244 123.08C240.74 123.08 242.964 123.64 244.916 124.76C246.9 125.848 248.436 127.4 249.524 129.416C250.644 131.4 251.204 133.704 251.204 136.328ZM238.244 127.88C236.324 127.88 234.692 128.456 233.348 129.608C232.036 130.728 231.236 132.232 230.948 134.12H245.492C245.236 132.264 244.452 130.76 243.14 129.608C241.828 128.456 240.196 127.88 238.244 127.88ZM266.056 123.08C269.832 123.08 272.712 123.992 274.696 125.816C276.712 127.608 277.72 130.328 277.72 133.976V149H272.056V145.88C271.32 147 270.264 147.864 268.888 148.472C267.544 149.048 265.912 149.336 263.992 149.336C262.072 149.336 260.392 149.016 258.952 148.376C257.512 147.704 256.392 146.792 255.592 145.64C254.824 144.456 254.44 143.128 254.44 141.656C254.44 139.352 255.288 137.512 256.984 136.136C258.712 134.728 261.416 134.024 265.096 134.024H271.72V133.64C271.72 131.848 271.176 130.472 270.088 129.512C269.032 128.552 267.448 128.072 265.336 128.072C263.896 128.072 262.472 128.296 261.064 128.744C259.688 129.192 258.52 129.816 257.56 130.616L255.208 126.248C256.552 125.224 258.168 124.44 260.056 123.896C261.944 123.352 263.944 123.08 266.056 123.08ZM265.24 144.968C266.744 144.968 268.072 144.632 269.224 143.96C270.408 143.256 271.24 142.264 271.72 140.984V138.008H265.528C262.072 138.008 260.344 139.144 260.344 141.416C260.344 142.504 260.776 143.368 261.64 144.008C262.504 144.648 263.704 144.968 265.24 144.968ZM300.828 147.608C300.124 148.184 299.26 148.616 298.236 148.904C297.244 149.192 296.188 149.336 295.068 149.336C292.252 149.336 290.076 148.6 288.54 147.128C287.004 145.656 286.236 143.512 286.236 140.696V128.36H282.012V123.56H286.236V117.704H292.236V123.56H299.1V128.36H292.236V140.552C292.236 141.8 292.54 142.76 293.148 143.432C293.756 144.072 294.636 144.392 295.788 144.392C297.132 144.392 298.252 144.04 299.148 143.336L300.828 147.608ZM330.58 123.368V149H324.868V145.736C323.908 146.888 322.708 147.784 321.268 148.424C319.828 149.032 318.276 149.336 316.612 149.336C313.188 149.336 310.484 148.392 308.5 146.504C306.548 144.584 305.572 141.752 305.572 138.008V123.368H311.572V137.192C311.572 139.496 312.084 141.224 313.108 142.376C314.164 143.496 315.652 144.056 317.572 144.056C319.716 144.056 321.412 143.4 322.66 142.088C323.94 140.744 324.58 138.824 324.58 136.328V123.368H330.58ZM344.148 127.112C345.876 124.424 348.916 123.08 353.268 123.08V128.792C352.756 128.696 352.292 128.648 351.876 128.648C349.54 128.648 347.716 129.336 346.404 130.712C345.092 132.056 344.436 134.008 344.436 136.568V149H338.436V123.368H344.148V127.112ZM382.22 136.328C382.22 136.744 382.188 137.336 382.124 138.104H362.012C362.364 139.992 363.276 141.496 364.748 142.616C366.252 143.704 368.108 144.248 370.316 144.248C373.132 144.248 375.452 143.32 377.276 141.464L380.492 145.16C379.34 146.536 377.884 147.576 376.124 148.28C374.364 148.984 372.38 149.336 370.172 149.336C367.356 149.336 364.876 148.776 362.732 147.656C360.588 146.536 358.924 144.984 357.74 143C356.588 140.984 356.012 138.712 356.012 136.184C356.012 133.688 356.572 131.448 357.692 129.464C358.844 127.448 360.428 125.88 362.444 124.76C364.46 123.64 366.732 123.08 369.26 123.08C371.756 123.08 373.98 123.64 375.932 124.76C377.916 125.848 379.452 127.4 380.54 129.416C381.66 131.4 382.22 133.704 382.22 136.328ZM369.26 127.88C367.34 127.88 365.708 128.456 364.364 129.608C363.052 130.728 362.252 132.232 361.964 134.12H376.508C376.252 132.264 375.468 130.76 374.156 129.608C372.844 128.456 371.212 127.88 369.26 127.88ZM395.903 149.336C393.823 149.336 391.791 149.064 389.807 148.52C387.823 147.976 386.239 147.288 385.055 146.456L387.359 141.896C388.511 142.664 389.887 143.288 391.487 143.768C393.119 144.216 394.719 144.44 396.287 144.44C399.871 144.44 401.663 143.496 401.663 141.608C401.663 140.712 401.199 140.088 400.271 139.736C399.375 139.384 397.919 139.048 395.903 138.728C393.791 138.408 392.063 138.04 390.719 137.624C389.407 137.208 388.255 136.488 387.263 135.464C386.303 134.408 385.823 132.952 385.823 131.096C385.823 128.664 386.831 126.728 388.847 125.288C390.895 123.816 393.647 123.08 397.103 123.08C398.863 123.08 400.623 123.288 402.383 123.704C404.143 124.088 405.583 124.616 406.703 125.288L404.399 129.848C402.223 128.568 399.775 127.928 397.055 127.928C395.295 127.928 393.951 128.2 393.023 128.744C392.127 129.256 391.679 129.944 391.679 130.808C391.679 131.768 392.159 132.456 393.119 132.872C394.111 133.256 395.631 133.624 397.679 133.976C399.727 134.296 401.407 134.664 402.719 135.08C404.031 135.496 405.151 136.2 406.079 137.192C407.039 138.184 407.519 139.592 407.519 141.416C407.519 143.816 406.479 145.736 404.399 147.176C402.319 148.616 399.487 149.336 395.903 149.336Z" fill="#502966"/>
        <g opacity="0.0456659">
            <path fill-rule="evenodd" clip-rule="evenodd" d="M185.424 249.831C185.443 238.652 194.45 229.682 205.518 229.702C216.566 229.702 225.592 238.711 225.572 249.89C225.553 261.01 216.508 270.02 205.459 270C194.411 269.98 185.404 260.97 185.424 249.831Z" fill="#7E3787"/>
            <path fill-rule="evenodd" clip-rule="evenodd" d="M317.914 210.754C314.43 216.033 310.504 220.979 306.307 225.672C289.676 209.796 258.954 191.183 206.192 191.104C164.133 191.065 128.503 203.324 105.712 225.613C101.496 220.901 97.6273 215.935 94.0855 210.676C120.438 185.806 160.129 172.218 206.212 172.276C263.805 172.355 298.511 192.825 317.914 210.754Z" fill="#7E3787"/>
            <path fill-rule="evenodd" clip-rule="evenodd" d="M94.0855 58.2333C97.5907 52.9367 101.5 48.0116 105.718 43.3209C122.319 59.2105 153.018 77.8363 205.807 77.895C247.85 77.9536 283.499 65.6797 306.282 43.36C310.461 48.0311 314.332 53.0345 317.914 58.2333C291.549 83.1133 251.875 96.7749 205.788 96.7162C148.146 96.6381 113.441 76.136 94.0855 58.2333Z" fill="#7E3787"/>
            <path fill-rule="evenodd" clip-rule="evenodd" d="M225.572 20.2083C225.553 31.3454 216.558 40.3181 205.459 40.2985C194.4 40.2985 185.404 31.2864 185.424 20.1492C185.424 9.01206 194.458 0.039354 205.518 0L205.557 0C216.616 0.078708 225.592 9.07109 225.572 20.2083Z" fill="#7E3787"/>
        </g>
    </g>
    <defs>
        <clipPath id="clip0">
        </clipPath>
    </defs>
</svg>